<mxfile host="Electron" modified="2023-07-22T02:47:05.583Z" agent="Mozilla/5.0 (Windows NT 10.0; Win64; x64) AppleWebKit/537.36 (KHTML, like Gecko) draw.io/21.6.1 Chrome/112.0.5615.204 Electron/24.6.1 Safari/537.36" etag="xgrhhnD989Wkio6rDWbm" version="21.6.1" type="device">
  <diagram name="第 1 页" id="uKQnckuGB_oqDtlKrPz5">
    <mxGraphModel dx="917" dy="674" grid="1" gridSize="10" guides="1" tooltips="1" connect="1" arrows="1" fold="1" page="1" pageScale="1" pageWidth="1200" pageHeight="1920" math="1" shadow="0">
      <root>
        <mxCell id="0" />
        <mxCell id="1" parent="0" />
        <mxCell id="PHH8fjHEo_8SI4OXQQ06-1" value="Regression" style="rounded=1;whiteSpace=wrap;html=1;fontSize=18;" vertex="1" parent="1">
          <mxGeometry x="120" y="120" width="960" height="60" as="geometry" />
        </mxCell>
        <mxCell id="PHH8fjHEo_8SI4OXQQ06-2" value="Regression Model" style="rounded=1;whiteSpace=wrap;html=1;fillColor=#fff2cc;strokeColor=#d6b656;" vertex="1" parent="1">
          <mxGeometry x="120" y="240" width="120" height="480" as="geometry" />
        </mxCell>
        <mxCell id="PHH8fjHEo_8SI4OXQQ06-8" value="" style="edgeStyle=orthogonalEdgeStyle;rounded=0;orthogonalLoop=1;jettySize=auto;html=1;endArrow=blockThin;endFill=1;" edge="1" parent="1" source="PHH8fjHEo_8SI4OXQQ06-3" target="PHH8fjHEo_8SI4OXQQ06-7">
          <mxGeometry relative="1" as="geometry" />
        </mxCell>
        <mxCell id="PHH8fjHEo_8SI4OXQQ06-3" value="Linear Regression" style="rounded=1;whiteSpace=wrap;html=1;" vertex="1" parent="1">
          <mxGeometry x="320" y="240" width="120" height="60" as="geometry" />
        </mxCell>
        <mxCell id="PHH8fjHEo_8SI4OXQQ06-10" value="" style="edgeStyle=orthogonalEdgeStyle;rounded=0;orthogonalLoop=1;jettySize=auto;html=1;endArrow=blockThin;endFill=1;" edge="1" parent="1" source="PHH8fjHEo_8SI4OXQQ06-4" target="PHH8fjHEo_8SI4OXQQ06-9">
          <mxGeometry relative="1" as="geometry" />
        </mxCell>
        <mxCell id="PHH8fjHEo_8SI4OXQQ06-4" value="RANSAC Regression" style="rounded=1;whiteSpace=wrap;html=1;" vertex="1" parent="1">
          <mxGeometry x="520" y="240" width="120" height="60" as="geometry" />
        </mxCell>
        <mxCell id="PHH8fjHEo_8SI4OXQQ06-15" value="" style="edgeStyle=orthogonalEdgeStyle;rounded=0;orthogonalLoop=1;jettySize=auto;html=1;endArrow=blockThin;endFill=1;" edge="1" parent="1" source="PHH8fjHEo_8SI4OXQQ06-5" target="PHH8fjHEo_8SI4OXQQ06-14">
          <mxGeometry relative="1" as="geometry" />
        </mxCell>
        <mxCell id="PHH8fjHEo_8SI4OXQQ06-5" value="Polynomial Regression" style="rounded=1;whiteSpace=wrap;html=1;" vertex="1" parent="1">
          <mxGeometry x="720" y="240" width="120" height="60" as="geometry" />
        </mxCell>
        <mxCell id="PHH8fjHEo_8SI4OXQQ06-18" value="" style="edgeStyle=orthogonalEdgeStyle;rounded=0;orthogonalLoop=1;jettySize=auto;html=1;endArrow=blockThin;endFill=1;" edge="1" parent="1" source="PHH8fjHEo_8SI4OXQQ06-6" target="PHH8fjHEo_8SI4OXQQ06-17">
          <mxGeometry relative="1" as="geometry" />
        </mxCell>
        <mxCell id="PHH8fjHEo_8SI4OXQQ06-6" value="Decision Tree/&lt;br&gt;Random Forest" style="rounded=1;whiteSpace=wrap;html=1;" vertex="1" parent="1">
          <mxGeometry x="920" y="240" width="120" height="60" as="geometry" />
        </mxCell>
        <mxCell id="PHH8fjHEo_8SI4OXQQ06-7" value="- sklearn.linear_model LinearRegression" style="whiteSpace=wrap;html=1;rounded=1;fillColor=#d5e8d4;strokeColor=#82b366;fontSize=11;" vertex="1" parent="1">
          <mxGeometry x="320" y="380" width="120" height="60" as="geometry" />
        </mxCell>
        <mxCell id="PHH8fjHEo_8SI4OXQQ06-9" value="- sklearn.linear_model&lt;br&gt;RANSACRegressor" style="whiteSpace=wrap;html=1;rounded=1;fillColor=#d5e8d4;strokeColor=#82b366;fontSize=11;" vertex="1" parent="1">
          <mxGeometry x="520" y="380" width="120" height="60" as="geometry" />
        </mxCell>
        <mxCell id="PHH8fjHEo_8SI4OXQQ06-12" value="&lt;h1&gt;&lt;span style=&quot;background-color: initial;&quot;&gt;Features&lt;/span&gt;&lt;/h1&gt;&lt;div&gt;&lt;font style=&quot;&quot;&gt;&lt;font style=&quot;font-size: 12px; font-weight: normal;&quot;&gt;- &lt;font color=&quot;#cc6600&quot;&gt;Error/Loss&lt;/font&gt;: SSE, or we call Original least squares, OLS&lt;/font&gt;&lt;/font&gt;&lt;/div&gt;&lt;div&gt;&lt;font style=&quot;&quot;&gt;&lt;font style=&quot;font-size: 12px; font-weight: normal;&quot;&gt;&lt;br&gt;&lt;/font&gt;&lt;/font&gt;&lt;/div&gt;&lt;div&gt;&lt;font style=&quot;&quot;&gt;&lt;font style=&quot;font-size: 12px; font-weight: normal;&quot;&gt;- Adaline without step function&lt;/font&gt;&lt;/font&gt;&lt;/div&gt;&lt;div&gt;&lt;font style=&quot;&quot;&gt;&lt;font style=&quot;font-size: 12px; font-weight: normal;&quot;&gt;&lt;br&gt;&lt;/font&gt;&lt;/font&gt;&lt;/div&gt;&lt;div&gt;&lt;font style=&quot;&quot;&gt;&lt;font style=&quot;font-size: 12px; font-weight: normal;&quot;&gt;- &lt;font color=&quot;#cc6600&quot;&gt;Optimization&lt;/font&gt;: Gradiant descent, GD or Stochasitc gradient descent&lt;/font&gt;&lt;/font&gt;&lt;/div&gt;" style="text;html=1;strokeColor=none;fillColor=none;spacing=5;spacingTop=-20;whiteSpace=wrap;overflow=hidden;rounded=0;fontFamily=Comic Sans MS;" vertex="1" parent="1">
          <mxGeometry x="320" y="480" width="160" height="200" as="geometry" />
        </mxCell>
        <mxCell id="PHH8fjHEo_8SI4OXQQ06-13" value="&lt;h1&gt;&lt;span style=&quot;background-color: initial;&quot;&gt;Parameter&lt;/span&gt;&lt;/h1&gt;&lt;div style=&quot;&quot;&gt;&lt;span style=&quot;background-color: initial; font-weight: normal;&quot;&gt;-&amp;nbsp;&lt;/span&gt;&lt;span style=&quot;background-color: initial;&quot;&gt;&lt;font color=&quot;#cc6600&quot;&gt;max_trials&lt;/font&gt;: maximum of iterations&lt;/span&gt;&lt;/div&gt;&lt;div&gt;&lt;span style=&quot;background-color: initial; font-size: 12px; font-weight: normal;&quot;&gt;&lt;br&gt;&lt;/span&gt;&lt;/div&gt;&lt;div&gt;&lt;span style=&quot;background-color: initial; font-size: 12px; font-weight: normal;&quot;&gt;- &lt;font color=&quot;#cc6600&quot;&gt;min_samples&lt;/font&gt;: minimum of random samples&#39; number&lt;/span&gt;&lt;/div&gt;&lt;div&gt;&lt;span style=&quot;background-color: initial; font-size: 12px; font-weight: normal;&quot;&gt;&lt;br&gt;&lt;/span&gt;&lt;/div&gt;&lt;div&gt;&lt;span style=&quot;background-color: initial; font-size: 12px; font-weight: normal;&quot;&gt;- &lt;font color=&quot;#cc6600&quot;&gt;loss&lt;/font&gt;: loss metrix(absolute_error, etc)&lt;/span&gt;&lt;/div&gt;&lt;div&gt;&lt;span style=&quot;background-color: initial; font-size: 12px; font-weight: normal;&quot;&gt;&lt;br&gt;&lt;/span&gt;&lt;/div&gt;&lt;div&gt;&lt;span style=&quot;background-color: initial; font-size: 12px; font-weight: normal;&quot;&gt;- &lt;font color=&quot;#cc6600&quot;&gt;residual_threshold&lt;/font&gt;: vertical distance or absolute difference of y and y(predict) for adding new inliers&lt;/span&gt;&lt;/div&gt;" style="text;html=1;strokeColor=none;fillColor=none;spacing=5;spacingTop=-20;whiteSpace=wrap;overflow=hidden;rounded=0;fontFamily=Comic Sans MS;" vertex="1" parent="1">
          <mxGeometry x="520" y="480" width="160" height="280" as="geometry" />
        </mxCell>
        <mxCell id="PHH8fjHEo_8SI4OXQQ06-14" value="- sklearn.preprocessing&lt;br&gt;PolynomialFeatures" style="whiteSpace=wrap;html=1;rounded=1;fillColor=#d5e8d4;strokeColor=#82b366;fontSize=11;" vertex="1" parent="1">
          <mxGeometry x="720" y="380" width="120" height="60" as="geometry" />
        </mxCell>
        <mxCell id="PHH8fjHEo_8SI4OXQQ06-16" value="&lt;h1&gt;&lt;span style=&quot;background-color: initial;&quot;&gt;Parameter&lt;/span&gt;&lt;/h1&gt;&lt;div style=&quot;&quot;&gt;&lt;span style=&quot;background-color: initial; font-weight: normal;&quot;&gt;- &lt;font color=&quot;#cc6600&quot;&gt;degree&lt;/font&gt;: power of new added variables. For example, degree = 2 means adding a x^2 part to original linear datasets&lt;/span&gt;&lt;/div&gt;" style="text;html=1;strokeColor=none;fillColor=none;spacing=5;spacingTop=-20;whiteSpace=wrap;overflow=hidden;rounded=0;fontFamily=Comic Sans MS;" vertex="1" parent="1">
          <mxGeometry x="720" y="480" width="160" height="130" as="geometry" />
        </mxCell>
        <mxCell id="PHH8fjHEo_8SI4OXQQ06-17" value="- sklearn.tree&lt;br style=&quot;font-size: 10px;&quot;&gt;DecisionTreeRegressor&lt;br style=&quot;font-size: 10px;&quot;&gt;- sklearn.ensemble&lt;br style=&quot;font-size: 10px;&quot;&gt;RandomForestRegressor" style="whiteSpace=wrap;html=1;rounded=1;fillColor=#d5e8d4;strokeColor=#82b366;fontSize=10;" vertex="1" parent="1">
          <mxGeometry x="920" y="380" width="120" height="60" as="geometry" />
        </mxCell>
        <mxCell id="PHH8fjHEo_8SI4OXQQ06-19" value="Metrix&lt;br&gt;(Regression)" style="rounded=1;whiteSpace=wrap;html=1;fillColor=#fff2cc;strokeColor=#d6b656;" vertex="1" parent="1">
          <mxGeometry x="120" y="840" width="120" height="360" as="geometry" />
        </mxCell>
        <mxCell id="PHH8fjHEo_8SI4OXQQ06-22" value="" style="edgeStyle=orthogonalEdgeStyle;rounded=0;orthogonalLoop=1;jettySize=auto;html=1;endArrow=blockThin;endFill=1;" edge="1" parent="1" source="PHH8fjHEo_8SI4OXQQ06-20" target="PHH8fjHEo_8SI4OXQQ06-21">
          <mxGeometry relative="1" as="geometry" />
        </mxCell>
        <mxCell id="PHH8fjHEo_8SI4OXQQ06-20" value="Rasidual (残差)" style="rounded=1;whiteSpace=wrap;html=1;" vertex="1" parent="1">
          <mxGeometry x="320" y="840" width="120" height="60" as="geometry" />
        </mxCell>
        <mxCell id="PHH8fjHEo_8SI4OXQQ06-21" value="`y - haty`" style="whiteSpace=wrap;html=1;rounded=1;fillColor=#f5f5f5;fontColor=#333333;strokeColor=#666666;" vertex="1" parent="1">
          <mxGeometry x="320" y="980" width="120" height="60" as="geometry" />
        </mxCell>
        <mxCell id="PHH8fjHEo_8SI4OXQQ06-27" value="" style="edgeStyle=orthogonalEdgeStyle;rounded=0;orthogonalLoop=1;jettySize=auto;html=1;endArrow=blockThin;endFill=1;" edge="1" parent="1" source="PHH8fjHEo_8SI4OXQQ06-23" target="PHH8fjHEo_8SI4OXQQ06-26">
          <mxGeometry relative="1" as="geometry" />
        </mxCell>
        <mxCell id="PHH8fjHEo_8SI4OXQQ06-23" value="Mean Squared Error,&lt;br&gt;MSE" style="rounded=1;whiteSpace=wrap;html=1;" vertex="1" parent="1">
          <mxGeometry x="520" y="840" width="120" height="60" as="geometry" />
        </mxCell>
        <mxCell id="PHH8fjHEo_8SI4OXQQ06-29" value="" style="edgeStyle=orthogonalEdgeStyle;rounded=0;orthogonalLoop=1;jettySize=auto;html=1;endArrow=blockThin;endFill=1;" edge="1" parent="1" source="PHH8fjHEo_8SI4OXQQ06-26" target="PHH8fjHEo_8SI4OXQQ06-28">
          <mxGeometry relative="1" as="geometry" />
        </mxCell>
        <mxCell id="PHH8fjHEo_8SI4OXQQ06-26" value="`1/nsum_(i=1)^n(y_i - haty_i)^2`" style="whiteSpace=wrap;html=1;rounded=1;fillColor=#f5f5f5;fontColor=#333333;strokeColor=#666666;fontSize=12;" vertex="1" parent="1">
          <mxGeometry x="520" y="980" width="120" height="60" as="geometry" />
        </mxCell>
        <mxCell id="PHH8fjHEo_8SI4OXQQ06-28" value="sklearn.metics&lt;br&gt;mean_squared_error" style="whiteSpace=wrap;html=1;rounded=1;fillColor=#d5e8d4;strokeColor=#82b366;fontSize=10;" vertex="1" parent="1">
          <mxGeometry x="520" y="1120" width="120" height="60" as="geometry" />
        </mxCell>
        <mxCell id="PHH8fjHEo_8SI4OXQQ06-32" value="" style="edgeStyle=orthogonalEdgeStyle;rounded=0;orthogonalLoop=1;jettySize=auto;html=1;endArrow=blockThin;endFill=1;" edge="1" parent="1" source="PHH8fjHEo_8SI4OXQQ06-30" target="PHH8fjHEo_8SI4OXQQ06-31">
          <mxGeometry relative="1" as="geometry" />
        </mxCell>
        <mxCell id="PHH8fjHEo_8SI4OXQQ06-30" value="R Squared, `R^2`" style="rounded=1;whiteSpace=wrap;html=1;" vertex="1" parent="1">
          <mxGeometry x="720" y="840" width="120" height="60" as="geometry" />
        </mxCell>
        <mxCell id="PHH8fjHEo_8SI4OXQQ06-35" value="" style="edgeStyle=orthogonalEdgeStyle;rounded=0;orthogonalLoop=1;jettySize=auto;html=1;endArrow=blockThin;endFill=1;" edge="1" parent="1" source="PHH8fjHEo_8SI4OXQQ06-31" target="PHH8fjHEo_8SI4OXQQ06-34">
          <mxGeometry relative="1" as="geometry" />
        </mxCell>
        <mxCell id="PHH8fjHEo_8SI4OXQQ06-37" value="" style="edgeStyle=orthogonalEdgeStyle;rounded=0;orthogonalLoop=1;jettySize=auto;html=1;endArrow=blockThin;endFill=1;" edge="1" parent="1" source="PHH8fjHEo_8SI4OXQQ06-31" target="PHH8fjHEo_8SI4OXQQ06-36">
          <mxGeometry relative="1" as="geometry" />
        </mxCell>
        <mxCell id="PHH8fjHEo_8SI4OXQQ06-31" value="`1-(SSE)/(SST)=1-(MSE)/(Var(y))`" style="whiteSpace=wrap;html=1;rounded=1;fillColor=#f5f5f5;fontColor=#333333;strokeColor=#666666;fontSize=9;" vertex="1" parent="1">
          <mxGeometry x="720" y="980" width="120" height="60" as="geometry" />
        </mxCell>
        <mxCell id="PHH8fjHEo_8SI4OXQQ06-34" value="`Var(y) =&amp;nbsp;1/nsum_(i=1)^n(y_i - mu_y)^2`" style="whiteSpace=wrap;html=1;fontSize=8;fillColor=#f5f5f5;strokeColor=#666666;fontColor=#333333;rounded=1;" vertex="1" parent="1">
          <mxGeometry x="880" y="980" width="120" height="60" as="geometry" />
        </mxCell>
        <mxCell id="PHH8fjHEo_8SI4OXQQ06-36" value="sklearn.metics&lt;br&gt;r2_score" style="whiteSpace=wrap;html=1;rounded=1;fillColor=#d5e8d4;strokeColor=#82b366;fontSize=10;" vertex="1" parent="1">
          <mxGeometry x="720" y="1120" width="120" height="60" as="geometry" />
        </mxCell>
        <mxCell id="PHH8fjHEo_8SI4OXQQ06-38" value="Optimization" style="rounded=1;whiteSpace=wrap;html=1;fillColor=#fff2cc;strokeColor=#d6b656;" vertex="1" parent="1">
          <mxGeometry x="120" y="1320" width="120" height="360" as="geometry" />
        </mxCell>
        <mxCell id="PHH8fjHEo_8SI4OXQQ06-46" value="" style="edgeStyle=orthogonalEdgeStyle;rounded=0;orthogonalLoop=1;jettySize=auto;html=1;endArrow=blockThin;endFill=1;" edge="1" parent="1" source="PHH8fjHEo_8SI4OXQQ06-39" target="PHH8fjHEo_8SI4OXQQ06-44">
          <mxGeometry relative="1" as="geometry" />
        </mxCell>
        <mxCell id="PHH8fjHEo_8SI4OXQQ06-39" value="L1, LASSO" style="rounded=1;whiteSpace=wrap;html=1;" vertex="1" parent="1">
          <mxGeometry x="320" y="1320" width="120" height="60" as="geometry" />
        </mxCell>
        <mxCell id="PHH8fjHEo_8SI4OXQQ06-47" value="" style="edgeStyle=orthogonalEdgeStyle;rounded=0;orthogonalLoop=1;jettySize=auto;html=1;endArrow=blockThin;endFill=1;" edge="1" parent="1" source="PHH8fjHEo_8SI4OXQQ06-40" target="PHH8fjHEo_8SI4OXQQ06-42">
          <mxGeometry relative="1" as="geometry" />
        </mxCell>
        <mxCell id="PHH8fjHEo_8SI4OXQQ06-40" value="L2, Ridge" style="rounded=1;whiteSpace=wrap;html=1;" vertex="1" parent="1">
          <mxGeometry x="520" y="1320" width="120" height="60" as="geometry" />
        </mxCell>
        <mxCell id="PHH8fjHEo_8SI4OXQQ06-49" value="" style="edgeStyle=orthogonalEdgeStyle;rounded=0;orthogonalLoop=1;jettySize=auto;html=1;endArrow=blockThin;endFill=1;" edge="1" parent="1" source="PHH8fjHEo_8SI4OXQQ06-41" target="PHH8fjHEo_8SI4OXQQ06-48">
          <mxGeometry relative="1" as="geometry" />
        </mxCell>
        <mxCell id="PHH8fjHEo_8SI4OXQQ06-41" value="Elastic Net (L1 &amp;amp; L2)" style="rounded=1;whiteSpace=wrap;html=1;" vertex="1" parent="1">
          <mxGeometry x="720" y="1320" width="120" height="60" as="geometry" />
        </mxCell>
        <mxCell id="PHH8fjHEo_8SI4OXQQ06-53" value="" style="edgeStyle=orthogonalEdgeStyle;rounded=0;orthogonalLoop=1;jettySize=auto;html=1;endArrow=blockThin;endFill=1;" edge="1" parent="1" source="PHH8fjHEo_8SI4OXQQ06-42" target="PHH8fjHEo_8SI4OXQQ06-52">
          <mxGeometry relative="1" as="geometry" />
        </mxCell>
        <mxCell id="PHH8fjHEo_8SI4OXQQ06-42" value="`lambda||omega||_2^2=lambdasum_(j=1)^momega_j^2`" style="whiteSpace=wrap;html=1;rounded=1;fillColor=#f5f5f5;fontColor=#333333;strokeColor=#666666;" vertex="1" parent="1">
          <mxGeometry x="520" y="1460" width="120" height="60" as="geometry" />
        </mxCell>
        <mxCell id="PHH8fjHEo_8SI4OXQQ06-51" value="" style="edgeStyle=orthogonalEdgeStyle;rounded=0;orthogonalLoop=1;jettySize=auto;html=1;endArrow=blockThin;endFill=1;" edge="1" parent="1" source="PHH8fjHEo_8SI4OXQQ06-44" target="PHH8fjHEo_8SI4OXQQ06-50">
          <mxGeometry relative="1" as="geometry" />
        </mxCell>
        <mxCell id="PHH8fjHEo_8SI4OXQQ06-44" value="`lambda||omega||_1=lambdasum_(j=1)^m|omega_j|`" style="whiteSpace=wrap;html=1;rounded=1;fillColor=#f5f5f5;fontColor=#333333;strokeColor=#666666;" vertex="1" parent="1">
          <mxGeometry x="320" y="1460" width="120" height="60" as="geometry" />
        </mxCell>
        <mxCell id="PHH8fjHEo_8SI4OXQQ06-55" value="" style="edgeStyle=orthogonalEdgeStyle;rounded=0;orthogonalLoop=1;jettySize=auto;html=1;endArrow=blockThin;endFill=1;" edge="1" parent="1" source="PHH8fjHEo_8SI4OXQQ06-48" target="PHH8fjHEo_8SI4OXQQ06-54">
          <mxGeometry relative="1" as="geometry" />
        </mxCell>
        <mxCell id="PHH8fjHEo_8SI4OXQQ06-48" value="`lambda||omega||_1&lt;br&gt;+ lambda||omega||_2^2`" style="whiteSpace=wrap;html=1;rounded=1;fillColor=#f5f5f5;fontColor=#333333;strokeColor=#666666;" vertex="1" parent="1">
          <mxGeometry x="720" y="1460" width="120" height="60" as="geometry" />
        </mxCell>
        <mxCell id="PHH8fjHEo_8SI4OXQQ06-50" value="sklearn.linear_model&lt;br&gt;Ridge" style="whiteSpace=wrap;html=1;rounded=1;fillColor=#d5e8d4;strokeColor=#82b366;fontSize=10;" vertex="1" parent="1">
          <mxGeometry x="320" y="1600" width="120" height="60" as="geometry" />
        </mxCell>
        <mxCell id="PHH8fjHEo_8SI4OXQQ06-52" value="sklearn.linear_model&lt;br&gt;Lasso" style="whiteSpace=wrap;html=1;rounded=1;fillColor=#d5e8d4;strokeColor=#82b366;fontSize=10;" vertex="1" parent="1">
          <mxGeometry x="520" y="1600" width="120" height="60" as="geometry" />
        </mxCell>
        <mxCell id="PHH8fjHEo_8SI4OXQQ06-54" value="sklearn.linear_model&lt;br&gt;ElasticNet" style="whiteSpace=wrap;html=1;rounded=1;fillColor=#d5e8d4;strokeColor=#82b366;fontSize=10;" vertex="1" parent="1">
          <mxGeometry x="720" y="1600" width="120" height="60" as="geometry" />
        </mxCell>
      </root>
    </mxGraphModel>
  </diagram>
</mxfile>
